<?xml version="1.0" encoding="UTF-8"?>
<svg xmlns="http://www.w3.org/2000/svg">
    <symbol id="logo" width="320" height="26" viewBox="0 0 320 26" fill="none">
        <g>
            <path d="M15.66 12.284H29.294V23.062C25.1687 24.626 20.9187 25.408 16.544 25.408C11.512 25.408 7.602 24.3087 4.814 22.11C2.026 19.9113 0.632 16.908 0.632 13.1C0.632 9.33733 1.91267 6.34533 4.474 4.124C7.03533 1.90267 10.6167 0.792 15.218 0.792C18.822 0.792 21.8027 1.472 24.16 2.832C26.54 4.192 28.036 6.03933 28.648 8.374L23.514 8.714C22.9927 7.626 21.984 6.75333 20.488 6.096C18.992 5.43867 17.2353 5.11 15.218 5.11C12.2713 5.11 9.982 5.84667 8.35 7.32C6.74067 8.79333 5.936 10.72 5.936 13.1C5.936 15.5253 6.854 17.4633 8.69 18.914C10.526 20.3647 13.1893 21.09 16.68 21.09C19.2413 21.09 21.8253 20.7727 24.432 20.138V15.82H15.66V12.284ZM56.9798 25L54.4978 19.662H39.4698L36.9878 25H31.7178L43.0058 1.2H51.1318L62.4198 25H56.9798ZM41.3058 15.684H52.6618L46.9838 3.444L41.3058 15.684ZM86.2052 25L77.5012 15.956H71.3472V25H66.0432V1.2H71.3472H82.3972C85.1399 1.2 87.3612 1.846 89.0612 3.138C90.7839 4.40733 91.6452 6.27733 91.6452 8.748C91.6452 11.0373 90.9199 12.7713 89.4692 13.95C88.0412 15.106 86.0806 15.7633 83.5872 15.922L92.9712 25H86.2052ZM71.3472 5.45V11.944H82.1252C83.4172 11.944 84.4372 11.672 85.1852 11.128C85.9559 10.5613 86.3412 9.768 86.3412 8.748C86.3412 7.70533 85.9559 6.90067 85.1852 6.334C84.4146 5.74467 83.3946 5.45 82.1252 5.45H71.3472ZM119.369 25L116.887 19.662H101.859L99.3765 25H94.1065L105.395 1.2H113.521L124.809 25H119.369ZM103.695 15.684H115.051L109.373 3.444L103.695 15.684ZM150.566 1.2H155.666V25H146.622L133.532 4.022V25H128.432V1.2H137.476L150.566 22.178V1.2ZM159.657 5.552V1.2H185.667V5.552H175.331V25H170.027V5.552H159.657ZM202.081 17.112C202.24 18.3813 203.022 19.4353 204.427 20.274C205.832 21.09 207.838 21.498 210.445 21.498C212.508 21.498 214.253 21.2713 215.681 20.818C217.132 20.3647 217.857 19.6507 217.857 18.676C217.857 17.4293 216.52 16.5227 213.845 15.956L205.379 14.052C200.642 12.9867 198.273 10.856 198.273 7.66C198.273 5.37067 199.35 3.65933 201.503 2.526C203.656 1.37 206.376 0.792 209.663 0.792C213.176 0.792 216.066 1.44933 218.333 2.764C220.6 4.056 221.869 5.90333 222.141 8.306L217.143 8.51C216.962 7.44467 216.202 6.54933 214.865 5.824C213.55 5.076 211.748 4.702 209.459 4.702C207.736 4.702 206.32 4.94 205.209 5.416C204.121 5.86933 203.577 6.51533 203.577 7.354C203.577 8.578 204.858 9.462 207.419 10.006L215.341 11.74C218.016 12.3293 219.988 13.1227 221.257 14.12C222.526 15.0947 223.161 16.466 223.161 18.234C223.161 20.6367 222.028 22.4387 219.761 23.64C217.517 24.8187 214.412 25.408 210.445 25.408C201.99 25.408 197.536 22.688 197.083 17.248L202.081 17.112ZM249.028 1.2H254.332V25H249.028V15.072H232.98V25H227.676V1.2H232.98V10.72H249.028V1.2ZM263.031 22.076C260.356 19.8547 259.019 16.8627 259.019 13.1C259.019 9.33733 260.356 6.34533 263.031 4.124C265.705 1.90267 269.445 0.792 274.251 0.792C279.056 0.792 282.796 1.90267 285.471 4.124C288.168 6.34533 289.517 9.33733 289.517 13.1C289.517 16.8627 288.168 19.8547 285.471 22.076C282.796 24.2973 279.056 25.408 274.251 25.408C269.445 25.408 265.705 24.2973 263.031 22.076ZM266.907 7.32C265.184 8.79333 264.323 10.72 264.323 13.1C264.323 15.48 265.184 17.4067 266.907 18.88C268.652 20.3533 271.1 21.09 274.251 21.09C277.401 21.09 279.849 20.3533 281.595 18.88C283.34 17.4067 284.213 15.48 284.213 13.1C284.213 10.72 283.34 8.79333 281.595 7.32C279.849 5.84667 277.401 5.11 274.251 5.11C271.1 5.11 268.652 5.84667 266.907 7.32ZM310.161 1.2C312.904 1.2 315.125 1.846 316.825 3.138C318.548 4.43 319.409 6.334 319.409 8.85C319.409 11.3887 318.57 13.27 316.893 14.494C315.238 15.6953 312.994 16.296 310.161 16.296H299.519V25H294.215V1.2H299.519H310.161ZM309.889 12.182C311.204 12.182 312.235 11.8987 312.983 11.332C313.731 10.7653 314.105 9.938 314.105 8.85C314.105 7.762 313.731 6.946 312.983 6.402C312.235 5.83533 311.204 5.552 309.889 5.552H299.519V12.182H309.889Z"
                  fill="white"/>
        </g>
    </symbol>
    <symbol id="logo-mobile" viewBox="0 0 151 13" fill="none">
        <g>
            <path d="M7.84 6.016H14.256V11.088C12.3147 11.824 10.3147 12.192 8.256 12.192C5.888 12.192 4.048 11.6747 2.736 10.64C1.424 9.60533 0.768 8.192 0.768 6.4C0.768 4.62933 1.37067 3.22133 2.576 2.176C3.78133 1.13067 5.46667 0.608 7.632 0.608C9.328 0.608 10.7307 0.928 11.84 1.568C12.96 2.208 13.664 3.07733 13.952 4.176L11.536 4.336C11.2907 3.824 10.816 3.41333 10.112 3.104C9.408 2.79467 8.58133 2.64 7.632 2.64C6.24533 2.64 5.168 2.98667 4.4 3.68C3.64267 4.37333 3.264 5.28 3.264 6.4C3.264 7.54133 3.696 8.45333 4.56 9.136C5.424 9.81867 6.67733 10.16 8.32 10.16C9.52533 10.16 10.7413 10.0107 11.968 9.712V7.68H7.84V6.016ZM27.2846 12L26.1166 9.488H19.0446L17.8766 12H15.3966L20.7086 0.799999H24.5326L29.8446 12H27.2846ZM19.9086 7.616H25.2526L22.5806 1.856L19.9086 7.616ZM41.0378 12L36.9418 7.744H34.0458V12H31.5498V0.799999H34.0458H39.2458C40.5364 0.799999 41.5818 1.104 42.3818 1.712C43.1924 2.30933 43.5978 3.18933 43.5978 4.352C43.5978 5.42933 43.2564 6.24533 42.5738 6.8C41.9018 7.344 40.9791 7.65333 39.8058 7.728L44.2218 12H41.0378ZM34.0458 2.8V5.856H39.1178C39.7258 5.856 40.2058 5.728 40.5578 5.472C40.9204 5.20533 41.1018 4.832 41.1018 4.352C41.1018 3.86133 40.9204 3.48267 40.5578 3.216C40.1951 2.93867 39.7151 2.8 39.1178 2.8H34.0458ZM56.644 12L55.476 9.488H48.404L47.236 12H44.756L50.068 0.799999H53.892L59.204 12H56.644ZM49.268 7.616H54.612L51.94 1.856L49.268 7.616ZM71.3251 0.799999H73.7251V12H69.4691L63.3091 2.128V12H60.9091V0.799999H65.1651L71.3251 10.672V0.799999ZM75.6035 2.848V0.799999H87.8435V2.848H82.9795V12H80.4835V2.848H75.6035ZM95.5675 8.288C95.6422 8.88533 96.0102 9.38133 96.6715 9.776C97.3328 10.16 98.2768 10.352 99.5035 10.352C100.474 10.352 101.296 10.2453 101.968 10.032C102.65 9.81867 102.992 9.48267 102.992 9.024C102.992 8.43733 102.362 8.01067 101.104 7.744L97.1195 6.848C94.8902 6.34667 93.7755 5.344 93.7755 3.84C93.7755 2.76267 94.2822 1.95733 95.2955 1.424C96.3088 0.88 97.5888 0.608 99.1355 0.608C100.789 0.608 102.149 0.917333 103.216 1.536C104.282 2.144 104.88 3.01333 105.008 4.144L102.656 4.24C102.57 3.73867 102.213 3.31733 101.584 2.976C100.965 2.624 100.117 2.448 99.0395 2.448C98.2288 2.448 97.5622 2.56 97.0395 2.784C96.5275 2.99733 96.2715 3.30133 96.2715 3.696C96.2715 4.272 96.8742 4.688 98.0795 4.944L101.808 5.76C103.066 6.03733 103.994 6.41067 104.592 6.88C105.189 7.33867 105.488 7.984 105.488 8.816C105.488 9.94667 104.954 10.7947 103.888 11.36C102.832 11.9147 101.37 12.192 99.5035 12.192C95.5248 12.192 93.4288 10.912 93.2155 8.352L95.5675 8.288ZM117.66 0.799999H120.156V12H117.66V7.328H110.108V12H107.612V0.799999H110.108V5.28H117.66V0.799999ZM124.25 10.624C122.991 9.57867 122.362 8.17067 122.362 6.4C122.362 4.62933 122.991 3.22133 124.25 2.176C125.508 1.13067 127.268 0.608 129.53 0.608C131.791 0.608 133.551 1.13067 134.81 2.176C136.079 3.22133 136.714 4.62933 136.714 6.4C136.714 8.17067 136.079 9.57867 134.81 10.624C133.551 11.6693 131.791 12.192 129.53 12.192C127.268 12.192 125.508 11.6693 124.25 10.624ZM126.074 3.68C125.263 4.37333 124.858 5.28 124.858 6.4C124.858 7.52 125.263 8.42667 126.074 9.12C126.895 9.81333 128.047 10.16 129.53 10.16C131.012 10.16 132.164 9.81333 132.986 9.12C133.807 8.42667 134.218 7.52 134.218 6.4C134.218 5.28 133.807 4.37333 132.986 3.68C132.164 2.98667 131.012 2.64 129.53 2.64C128.047 2.64 126.895 2.98667 126.074 3.68ZM146.429 0.799999C147.719 0.799999 148.765 1.104 149.565 1.712C150.375 2.32 150.781 3.216 150.781 4.4C150.781 5.59467 150.386 6.48 149.597 7.056C148.818 7.62133 147.762 7.904 146.429 7.904H141.421V12H138.925V0.799999H141.421H146.429ZM146.301 5.968C146.919 5.968 147.405 5.83467 147.757 5.568C148.109 5.30133 148.285 4.912 148.285 4.4C148.285 3.888 148.109 3.504 147.757 3.248C147.405 2.98133 146.919 2.848 146.301 2.848H141.421V5.968H146.301Z"
                  fill="white"/>
        </g>
    </symbol>
    <symbol id="telegram" viewBox="0 0 53 53" fill="none">
        <g>
            <path d="M0 26.5C0 41.1355 11.8645 53 26.5 53C41.1355 53 53 41.1355 53 26.5C53 11.8645 41.1355 0 26.5 0C11.8645 0 0 11.8645 0 26.5Z"
                  fill="#6854EC"/>
            <path d="M13.4155 26.0169C20.529 22.9176 25.2725 20.8744 27.6459 19.8872C34.4224 17.0686 35.8305 16.579 36.7483 16.5627C36.9502 16.5593 37.4015 16.6093 37.6939 16.8465C37.9407 17.0468 38.0087 17.3174 38.0412 17.5074C38.0737 17.6973 38.1141 18.1299 38.082 18.468C37.7147 22.3264 36.1258 31.6898 35.3174 36.0114C34.9753 37.84 34.3018 38.4531 33.6498 38.5131C32.2327 38.6435 31.1567 37.5766 29.7842 36.677C27.6366 35.2691 26.4233 34.3928 24.3386 33.019C21.9295 31.4314 23.4912 30.5588 24.8642 29.1328C25.2235 28.7596 31.467 23.0806 31.5879 22.5654C31.603 22.501 31.617 22.2608 31.4743 22.134C31.3317 22.0072 31.1211 22.0506 30.9691 22.0851C30.7537 22.134 27.3228 24.4016 20.6764 28.8881C19.7026 29.5569 18.8205 29.8827 18.0302 29.8656C17.1589 29.8468 15.483 29.373 14.2371 28.968C12.7089 28.4713 11.4944 28.2086 11.6002 27.365C11.6553 26.9256 12.2604 26.4762 13.4155 26.0169Z"
                  fill="white"/>
        </g>
    </symbol>
    <symbol id="search" viewBox="0 0 19 19" fill="none">
        <g>
            <path d="M0 7.68474C0 11.9219 3.42842 15.3695 7.64213 15.3695C9.30845 15.3695 10.8311 14.8302 12.0857 13.925L16.7974 18.6726C17.0176 18.8941 17.305 19 17.6114 19C18.2626 19 18.7127 18.5088 18.7127 17.8637C18.7127 17.5555 18.5978 17.2762 18.3967 17.074L13.7137 12.336C14.7001 11.0456 15.2843 9.43742 15.2843 7.68474C15.2843 3.44754 11.8558 0 7.64213 0C3.42842 0 0 3.44754 0 7.68474ZM1.6376 7.68474C1.6376 4.35277 4.32863 1.64673 7.64213 1.64673C10.9556 1.64673 13.6467 4.35277 13.6467 7.68474C13.6467 11.0167 10.9556 13.7227 7.64213 13.7227C4.32863 13.7227 1.6376 11.0167 1.6376 7.68474Z"
                  fill="#A9ABAD" fill-opacity="0.85"/>
        </g>
    </symbol>
    <symbol id="burger" viewBox="0 0 25 13" fill="none">
        <g>
            <path d="M0.878906 12.0352H22.8164C23.3086 12.0352 23.707 11.6367 23.707 11.1328C23.707 10.6406 23.3086 10.2539 22.8164 10.2539H0.878906C0.386719 10.2539 0 10.6406 0 11.1328C0 11.6367 0.386719 12.0352 0.878906 12.0352Z"
                  fill="white"/>
            <path d="M0.878906 6.91406H22.8164C23.3086 6.91406 23.707 6.52734 23.707 6.03516C23.707 5.53125 23.3086 5.13281 22.8164 5.13281H0.878906C0.386719 5.13281 0 5.53125 0 6.03516C0 6.52734 0.386719 6.91406 0.878906 6.91406Z"
                  fill="white"/>
            <path d="M0.878906 1.80469H22.8164C23.3086 1.80469 23.707 1.41797 23.707 0.925781C23.707 0.433594 23.3086 0.0351562 22.8164 0.0351562H0.878906C0.386719 0.0351562 0 0.433594 0 0.925781C0 1.41797 0.386719 1.80469 0.878906 1.80469Z"
                  fill="white"/>
        </g>
    </symbol>
    <symbol id="close" viewBox="0 0 28 28" fill="none">
        <g>
            <g clip-path="url(#clip0_1_673)">
                <path d="M6.84438 6.83629C6.43834 7.24233 6.44666 7.91349 6.84441 8.31124L12.2057 13.6725L6.84436 19.0339C6.44661 19.4316 6.43837 20.1028 6.84441 20.5088C7.25045 20.9149 7.92991 20.9149 8.32765 20.5172L13.689 15.1558L19.042 20.5089C19.4398 20.9066 20.1109 20.9149 20.5169 20.5088C20.923 20.1028 20.923 19.4234 20.5253 19.0256L15.1722 13.6726L20.5253 8.31958C20.923 7.92184 20.923 7.24233 20.517 6.83629C20.1109 6.43025 19.4397 6.43854 19.042 6.83629L13.689 12.1893L8.32765 6.828C7.9299 6.43025 7.25041 6.43025 6.84438 6.83629Z"
                      fill="#919191"/>
            </g>
            <defs>
                <clipPath id="clip0_1_673">
                    <rect width="19.6875" height="19.3477" fill="white" transform="translate(13.6807) rotate(45)"/>
                </clipPath>
            </defs>
        </g>
    </symbol>
    <symbol id="arrow" viewBox="0 0 11 7" fill="none">
        <g>
            <path d="M0.168082 5.43341C0.0622528 5.53917 0 5.69117 0 5.86304C0 6.20677 0.242785 6.46454 0.5665 6.46454C0.728352 6.46454 0.877758 6.40509 0.971136 6.29268L5.73969 1.1237L5.07358 1.1237L9.8421 6.29268C9.9417 6.40509 10.0911 6.46454 10.2468 6.46454C10.5705 6.46454 10.8133 6.20677 10.8133 5.86304C10.8133 5.69117 10.751 5.53917 10.6452 5.43341L5.82686 0.198299C5.72099 0.0727097 5.56539 0 5.40974 0C5.24789 0 5.09848 0.0727097 4.98642 0.198299L0.168082 5.43341Z"
                  fill="white"/>
        </g>
    </symbol>
</svg>