<svg width="16" height="16" viewBox="0 0 16 16" fill="none" xmlns="http://www.w3.org/2000/svg">
<circle cx="8" cy="8" r="8" fill="#1E1E1E"/>
<path d="M8.07298 8.17969H11.8953V11.2013C10.7387 11.6398 9.54725 11.859 8.32081 11.859C6.91009 11.859 5.81392 11.5508 5.0323 10.9344C4.25068 10.318 3.85988 9.47603 3.85988 8.40846C3.85988 7.35359 4.21891 6.51478 4.93698 5.89203C5.65505 5.26928 6.65908 4.95791 7.94907 4.95791C8.95945 4.95791 9.79508 5.14854 10.456 5.52982C11.1232 5.9111 11.5426 6.429 11.7142 7.08352L10.2749 7.17884C10.1287 6.87382 9.84592 6.62917 9.42651 6.44488C9.00711 6.2606 8.51463 6.16846 7.94907 6.16846C7.12297 6.16846 6.48115 6.37498 6.02362 6.78803C5.57244 7.20108 5.34685 7.74122 5.34685 8.40846C5.34685 9.0884 5.60422 9.63172 6.11894 10.0384C6.63366 10.4451 7.38033 10.6485 8.35894 10.6485C9.07701 10.6485 9.80144 10.5595 10.5322 10.3816V9.17101H8.07298V8.17969Z" fill="white"/>
</svg>
